<?xml version="1.0" encoding="UTF-8"?>
<svg id="katman_1" data-name="katman 1" xmlns="http://www.w3.org/2000/svg" viewBox="0 0 256 256">
  <defs>
    <style>
      .cls-1 {
        fill: #00a651;
      }
    </style>
  </defs>
  <g id="Logo">
    <path class="cls-1" d="M97.42,156.85l22.71-22.71-42.18-42.18c-24.21,24.21-48.41,48.41-72.62,72.62,3.32,11.13,8.12,21.62,14.16,31.25l58.46-58.46,19.47,19.47Z"/>
    <path class="cls-1" d="M43.89,224.39c8.22,7.16,17.36,13.3,27.22,18.19,37.95-37.96,75.91-75.91,113.87-113.87l57.08,57.08c5.35-10.53,9.28-21.9,11.55-33.86-22.88-22.88-45.75-45.76-68.63-68.63-47.03,47.03-94.06,94.06-141.09,141.09Z"/>
    <path class="cls-1" d="M48.22,181.12l-23.04,23.04c3.52,4.74,7.36,9.23,11.5,13.43l22.71-22.71c-4.13-4.23-7.87-8.83-11.17-13.76Z"/>
    <path class="cls-1" d="M255.86,127.92c0-70.65-57.28-127.92-127.93-127.92S0,57.28,0,127.93c0,8.71.87,17.21,2.53,25.44l29.67-29.67c2.22-50.95,44.23-91.58,95.73-91.58,45.16,0,83.01,31.23,93.15,73.28l34.25,34.25c.35-3.85.53-7.76.53-11.7,0,0,0,0,0,0,0,0,0,0,0,0Z"/>
    <path class="cls-1" d="M127.93,223.75c-7.41,0-14.62-.84-21.54-2.43l-25.58,25.58c14.58,5.78,30.48,8.96,47.12,8.96,46.15,0,86.6-24.44,109.1-61.08l-23.58-23.58c-15.81,31.18-48.16,52.55-85.52,52.55Z"/>
  </g>
</svg>